<svg xmlns="http://www.w3.org/2000/svg" viewBox="0 0 232.9 94.8"><defs><style>.cls-1{fill:#fff;}</style></defs><g id="Capa_2" data-name="Capa 2"><g id="_05" data-name="05"><path class="cls-1" d="M109.8,17.4h-4.1c-1.3,0-1.9.6-1.9,2V23A24.3,24.3,0,0,0,71,24a23.9,23.9,0,0,0,0,33.6,23.5,23.5,0,0,0,17,6.9,24.3,24.3,0,0,0,15.8-6v4c0,1.4.6,2,2,2h4c1.4,0,2-.6,2-2V19.4c0-1.4-.6-2-2-2M99.3,52a16.3,16.3,0,0,1-22.6-.1,14.8,14.8,0,0,1-4.6-11.3,14.9,14.9,0,0,1,4.5-11.1h0a15,15,0,0,1,11.3-4.7,15.8,15.8,0,0,1,11.4,4.5,16.2,16.2,0,0,1,0,22.7"/><path class="cls-1" d="M37.4,23a20.2,20.2,0,0,0-14.7-5.9A21.4,21.4,0,0,0,6.8,23.6a24.6,24.6,0,0,0,.1,34,23.5,23.5,0,0,0,17,6.9,29.4,29.4,0,0,0,15.3-4.2c1.1-.6,1.5-1.1,1.5-1.7a1,1,0,0,0-.3-1l-1.5-3.2a1.3,1.3,0,0,0-1.3-1,1.1,1.1,0,0,0-1.1.3,26.3,26.3,0,0,1-12.3,3A15.6,15.6,0,0,1,8.3,44H41.9c1.4,0,2-.6,2-1.9V39.5A22.3,22.3,0,0,0,37.4,23M8.6,37.3a16.7,16.7,0,0,1,5.5-9.5A13.7,13.7,0,0,1,32.2,29a13,13,0,0,1,3.7,8.3Z"/><path class="cls-1" d="M52,64.5c-1.4,0-2-.6-2-1.8V2c0-1.4.6-2,2-2h4c1.4,0,2,.6,2,2V62.5c0,1.4-.6,2-2,2Z"/><path class="cls-1" d="M165.3,11.3a4,4,0,0,1-1.2-2.9,4.2,4.2,0,0,1,1.2-3,4.6,4.6,0,0,1,6,0,4.3,4.3,0,0,1,1.3,3,4.1,4.1,0,0,1-1.3,2.9,4.6,4.6,0,0,1-6,0"/><path class="cls-1" d="M164.3,20.2a4,4,0,1,1,8,0V62.5c0,1.4-.6,2-1.9,2h-4.1c-1.4,0-2-.6-2-2V20"/><path class="cls-1" d="M179.4,11.3a4.1,4.1,0,0,1-1.3-2.9,4.3,4.3,0,0,1,1.3-3,4.6,4.6,0,0,1,6,0,4.2,4.2,0,0,1,1.2,3,3.6,3.6,0,0,1-1.2,2.9,4.6,4.6,0,0,1-6,0"/><path class="cls-1" d="M178.4,20.2a4,4,0,1,1,8,0V62.5c0,1.4-.6,2-2,2h-4.1c-1.3,0-1.9-.6-1.9-2V20"/><path class="cls-1" d="M158.3,35.5a19.2,19.2,0,0,0-32.4-14h0V19.4c0-1.4-.6-2-2-2h-4.1c-1.3,0-1.9.6-1.9,2V62.5c0,1.4.6,2,1.9,2h4.1c1.4,0,2-.6,2-2V36.4a12.2,12.2,0,0,1,12.3-12.3,12.4,12.4,0,0,1,12.3,12.4h0v26c0,1.4.6,2,2,2h3.9c1.3,0,1.9-.6,1.9-2v-27Z"/><path class="cls-1" d="M232.9,35.6a19.2,19.2,0,0,0-32.4-14h0V19.4a1.8,1.8,0,0,0-2-2h-4.1c-1.3,0-1.9.6-1.9,2V62.5c0,1.4.6,2,1.9,2h4.1c1.4,0,2-.6,2-2V36.6a12.2,12.2,0,0,1,12.2-12.3,12.4,12.4,0,0,1,12.4,12.3h0V62.5c0,1.4.6,2,2,2H231c1.3,0,1.9-.6,1.9-2V35.6Z"/><path class="cls-1" d="M18.6,86.5H15.4V84.6h8.7v1.9H20.9v8.1H18.6V86.5Z"/><path class="cls-1" d="M40.3,92.8v1.8H32.6v-10h7.6v1.9H34.9v2.1h4.6v1.9H34.9v2.3Z"/><path class="cls-1" d="M48.7,89.6a5.2,5.2,0,0,1,5.5-5.2,5,5,0,0,1,4.1,1.8l-1.5,1.4a3.2,3.2,0,0,0-2.5-1.2,3.2,3.2,0,1,0,0,6.4,3.2,3.2,0,0,0,2.5-1.2L58.3,93a5,5,0,0,1-4.1,1.8A5.2,5.2,0,0,1,48.7,89.6Z"/><path class="cls-1" d="M76.3,84.6v10H74V90.5H69.4v4.1H67.1v-10h2.3v4H74v-4Z"/><path class="cls-1" d="M96.5,89.6a5.5,5.5,0,0,1,9.6-3.4l-1.5,1.4a3.4,3.4,0,0,0-2.6-1.2,3.2,3.2,0,0,0,0,6.4,3.4,3.4,0,0,0,2.6-1.2l1.5,1.4a5.5,5.5,0,0,1-9.6-3.4Z"/><path class="cls-1" d="M114,89.6a5.2,5.2,0,0,1,5.5-5.2,5.2,5.2,0,1,1,0,10.4A5.2,5.2,0,0,1,114,89.6Zm8.6,0a3,3,0,0,0-3.1-3.2,3.2,3.2,0,0,0,0,6.4A3,3,0,0,0,122.6,89.6Z"/><path class="cls-1" d="M143,94.6v-6l-2.9,5H139l-2.9-4.9v5.9h-2.2v-10h1.9l3.8,6.2,3.7-6.2h1.9v10Z"/><path class="cls-1" d="M163.5,88.2c0,2.3-1.7,3.7-4.3,3.7h-2.1v2.7h-2.3v-10h4.4C161.8,84.6,163.5,86,163.5,88.2Zm-2.3,0c0-1.1-.8-1.7-2.2-1.7h-1.9V90H159C160.4,90,161.2,89.3,161.2,88.2Z"/><path class="cls-1" d="M178.5,92.5h-4.7l-.9,2.1h-2.4l4.5-10h2.3l4.5,10h-2.4Zm-.8-1.8-1.6-3.8-1.5,3.8Z"/><path class="cls-1" d="M199.3,84.6v10h-2l-5-6.1v6.1H190v-10h2l5,6.1V84.6Z"/><path class="cls-1" d="M213.7,91.1v3.5h-2.4V91.1l-3.9-6.5h2.5l2.7,4.5,2.7-4.5h2.3Z"/></g></g></svg>